A disturbed and delusional high school student with aspirations of a career in medicine goes to extremes to earn the approval of her controlling mother.

AnnaLynne McCord...	Pauline
Traci Lords	...	Phyllis
Ariel Winter	...	Grace
Roger Bart	...	Bob
Jeremy Sumpter	...	Adam
John Waters	...	William
Malcolm McDowell...	Mr. Cooper
 
http://www.imdb.com/title/tt1984153/

Format                           : AVI
Format/Info                      : Audio Video Interleave
File size                        : 700 MiB
Duration                         : 1h 21mn
Overall bit rate                 : 1 203 Kbps

Video
ID                               : 0
Format                           : MPEG-4 Visual
Format profile                   : Advanced Simple@L5
Format settings, BVOP            : 1
Format settings, QPel            : No
Format settings, GMC             : No warppoints
Format settings, Matrix          : Default (H.263)
Codec ID                         : XVID
Codec ID/Hint                    : XviD
Duration                         : 1h 21mn
Bit rate                         : 1 052 Kbps
Width                            : 640 pixels
Height                           : 272 pixels
Display aspect ratio             : 2.35:1
Frame rate                       : 23.976 fps
Color space                      : YUV
Chroma subsampling               : 4:2:0
Bit depth                        : 8 bits
Scan type                        : Progressive
Compression mode                 : Lossy
Bits/(Pixel*Frame)               : 0.252
Stream size                      : 612 MiB (87%)
Writing library                  : XviD 64

Audio
ID                               : 1
Format                           : MPEG Audio
Format version                   : Version 1
Format profile                   : Layer 3
Mode                             : Joint stereo
Mode extension                   : MS Stereo
Codec ID                         : 55
Codec ID/Hint                    : MP3
Duration                         : 1h 21mn
Bit rate mode                    : Variable
Bit rate                         : 139 Kbps
Nominal bit rate                 : 160 Kbps
Channel(s)                       : 2 channels
Sampling rate                    : 48.0 KHz
Compression mode                 : Lossy
Stream size                      : 80.7 MiB (12%)
Alignment                        : Aligned on interleaves
Interleave, duration             : 24 ms (0.58 video frame)
Interleave, preload duration     : 60 ms
 
http://imageshack.us/a/img10/1407/vlcsnap2012102417h47m21.png 
http://imageshack.us/a/img109/8281/vlcsnap2012102417h47m24.png 
http://imageshack.us/a/img15/4773/vlcsnap2012102417h47m32.png